<mxfile host="app.diagrams.net" modified="2023-12-06T14:31:39.127Z" agent="Mozilla/5.0 (Windows NT 10.0; Win64; x64) AppleWebKit/537.36 (KHTML, like Gecko) Chrome/119.0.0.0 Safari/537.36" version="22.1.6" etag="cn1ZhWiMyFLkPB6p-EfF" type="github">
  <diagram name="Page-1" id="MGYpv4ebnwI7Y6khRVSB">
    <mxGraphModel>
      <root>
        <mxCell id="0" />
        <mxCell id="1" parent="0" />
      </root>
    </mxGraphModel>
  </diagram>
</mxfile>
